<svg viewBox="0 0 420 460" xmlns="http://www.w3.org/2000/svg">
  <defs>
    <radialGradient id="glow" cx="50%" cy="30%" r="65%">
      <stop offset="0%" stop-color="#4a6b3f"/>
      <stop offset="100%" stop-color="#1e2a1e" stop-opacity="0"/>
    </radialGradient>
  </defs>
  <circle cx="210" cy="150" r="190" fill="url(#glow)"/>

  <!-- ground -->
  <ellipse cx="210" cy="420" rx="200" ry="30" fill="#16201533"/>

  <!-- back trees -->
  <g opacity="0.55">
    <path d="M70 300 Q60 230 70 170 Q100 150 130 170 Q140 230 130 300 Z" fill="#3f5438"/>
    <path d="M330 310 Q322 245 330 190 Q358 172 386 190 Q394 245 386 310 Z" fill="#3f5438"/>
  </g>

  <!-- large mushroom left -->
  <g transform="translate(78,236)">
    <rect x="18" y="46" width="20" height="70" rx="8" fill="#f2e6c9"/>
    <path d="M0 46 C0 6 56 6 56 46 C56 58 44 46 28 46 C12 46 0 58 0 46Z" fill="#b5602f"/>
    <path d="M4 40 C4 10 52 10 52 40 C36 32 20 32 4 40Z" fill="#954c22"/>
    <circle cx="14" cy="22" r="3.4" fill="#f6f0e4"/>
    <circle cx="30" cy="14" r="4.2" fill="#f6f0e4"/>
    <circle cx="42" cy="24" r="3" fill="#f6f0e4"/>
  </g>

  <!-- medium mushroom center -->
  <g transform="translate(178,268)">
    <rect x="22" y="52" width="18" height="60" rx="8" fill="#f2e6c9"/>
    <path d="M2 52 C2 16 60 16 60 52 C60 62 48 50 31 50 C14 50 2 62 2 52Z" fill="#d3922f"/>
    <path d="M6 46 C6 20 56 20 56 46 C40 38 22 38 6 46Z" fill="#b5602f"/>
  </g>

  <!-- tall mushroom right -->
  <g transform="translate(268,214)">
    <rect x="20" y="60" width="20" height="86" rx="8" fill="#f2e6c9"/>
    <path d="M0 60 C0 12 60 12 60 60 C60 74 46 60 30 60 C14 60 0 74 0 60Z" fill="#6a3d2a"/>
    <path d="M4 52 C4 16 56 16 56 52 C40 42 20 42 4 52Z" fill="#8a5638"/>
    <circle cx="16" cy="30" r="3.6" fill="#f6f0e4"/>
    <circle cx="34" cy="20" r="4.6" fill="#f6f0e4"/>
    <circle cx="48" cy="34" r="3.2" fill="#f6f0e4"/>
    <circle cx="30" cy="42" r="2.6" fill="#f6f0e4"/>
  </g>

  <!-- small cluster -->
  <g transform="translate(150,336)">
    <rect x="10" y="20" width="10" height="26" rx="4" fill="#f2e6c9"/>
    <path d="M0 20 C0 4 30 4 30 20 C30 26 22 18 15 18 C8 18 0 26 0 20Z" fill="#d3922f"/>
  </g>
  <g transform="translate(238,344)">
    <rect x="8" y="16" width="9" height="22" rx="4" fill="#f2e6c9"/>
    <path d="M0 16 C0 2 26 2 26 16 C26 22 19 15 13 15 C7 15 0 22 0 16Z" fill="#b5602f"/>
  </g>

  <!-- grass tufts -->
  <g stroke="#6a7f4e" stroke-width="3" stroke-linecap="round" fill="none" opacity="0.8">
    <path d="M40 420 q6 -22 0 -34"/>
    <path d="M50 420 q10 -18 4 -32"/>
    <path d="M370 424 q-6 -20 2 -32"/>
    <path d="M360 424 q-12 -16 -4 -30"/>
  </g>
</svg>
